<svg width="109" height="123" viewBox="0 0 109 123" fill="none" xmlns="http://www.w3.org/2000/svg">
<g clip-path="url(#clip0_488_1626)">
<path fill-rule="evenodd" clip-rule="evenodd" d="M25.14 53.37C24.4054 53.37 23.7008 53.6619 23.1813 54.1813C22.6619 54.7008 22.37 55.4054 22.37 56.14C22.37 56.8747 22.6619 57.5792 23.1813 58.0987C23.7008 58.6182 24.4054 58.91 25.14 58.91H45.25C45.9847 58.91 46.6892 58.6182 47.2087 58.0987C47.7282 57.5792 48.02 56.8747 48.02 56.14C48.02 55.4054 47.7282 54.7008 47.2087 54.1813C46.6892 53.6619 45.9847 53.37 45.25 53.37H25.14ZM85.62 16.47L92.28 23.16L84.28 31.3L92.28 39.44L85.61 46.1L77.61 38.01L69.61 46.11L63 39.43L71 31.29L63 23.14L69.67 16.49L77.67 24.57L85.67 16.47H85.62ZM77.77 2.05447e-05C84.78 0.012205 91.5776 2.40678 97.0475 6.79081C102.517 11.1749 106.335 17.288 107.873 24.127C109.411 30.9661 108.579 38.125 105.513 44.4289C102.447 50.7329 97.3296 55.8075 91 58.82V116.51C90.9974 118.199 90.3254 119.817 89.1314 121.011C87.9373 122.205 86.3186 122.877 84.63 122.88H6.37003C4.68141 122.877 3.06272 122.205 1.86868 121.011C0.674648 119.817 0.00267604 118.199 3.13752e-05 116.51V22.4C-0.00259873 21.5613 0.160153 20.7304 0.478975 19.9547C0.797797 19.179 1.26643 18.4737 1.85807 17.8793C2.44971 17.2849 3.15275 16.8129 3.92696 16.4904C4.70116 16.168 5.53135 16.0013 6.37003 16H50.67C53.3388 11.1493 57.2622 7.10489 62.0297 4.29012C66.7972 1.47535 72.2336 -0.00636383 77.77 2.05447e-05ZM85.55 60.81C80.2006 62.1971 74.5773 62.1251 69.2651 60.6016C63.953 59.078 59.1463 56.1587 55.3451 52.1472C51.544 48.1358 48.8875 43.179 47.652 37.7925C46.4165 32.4061 46.6472 26.787 48.32 21.52H6.37003C6.13407 21.5207 5.90783 21.6141 5.74003 21.78C5.57591 21.949 5.48285 22.1745 5.48003 22.41V116.5C5.48003 116.736 5.5738 116.962 5.74071 117.129C5.90761 117.296 6.13399 117.39 6.37003 117.39H84.65C84.886 117.389 85.1122 117.296 85.28 117.13C85.4442 116.961 85.5372 116.736 85.54 116.5V60.81H85.55ZM25.14 92.22C24.4133 92.22 23.7164 92.5087 23.2026 93.0226C22.6887 93.5364 22.4 94.2333 22.4 94.96C22.4 95.6867 22.6887 96.3836 23.2026 96.8975C23.7164 97.4113 24.4133 97.7 25.14 97.7H63.61C64.3367 97.7 65.0337 97.4113 65.5475 96.8975C66.0614 96.3836 66.35 95.6867 66.35 94.96C66.35 94.2333 66.0614 93.5364 65.5475 93.0226C65.0337 92.5087 64.3367 92.22 63.61 92.22H25.14ZM25.14 72.81C24.4133 72.81 23.7164 73.0987 23.2026 73.6125C22.6887 74.1264 22.4 74.8233 22.4 75.55C22.4 76.2767 22.6887 76.9736 23.2026 77.4875C23.7164 78.0013 24.4133 78.29 25.14 78.29H63.61C64.3367 78.29 65.0337 78.0013 65.5475 77.4875C66.0614 76.9736 66.35 76.2767 66.35 75.55C66.35 74.8233 66.0614 74.1264 65.5475 73.6125C65.0337 73.0987 64.3367 72.81 63.61 72.81H25.14Z" fill="#ecf2f7"/>
</g>
<defs>
<clipPath id="clip0_488_1626">
<rect width="108.67" height="122.88" fill="white"/>
</clipPath>
</defs>
</svg>